<svg width="44" height="64" viewBox="0 0 44 64" fill="none" xmlns="http://www.w3.org/2000/svg">
<path d="M21.8826 2.73389C10.8904 2.73389 2 10.9016 2 21.8938C2 34.2486 15.6484 54.5733 20.3292 61.1805C21.1002 62.2688 22.6651 62.2688 23.4361 61.1805C28.1169 54.5733 41.7652 34.2486 41.7652 21.8938C41.7652 10.9016 32.8749 2.73389 21.8826 2.73389ZM21.8826 28.9947C19.9993 28.9947 18.1932 28.2465 16.8615 26.9149C15.5298 25.5832 14.7817 23.777 14.7817 21.8938C14.7817 20.0105 15.5298 18.2043 16.8615 16.8727C18.1932 15.541 19.9993 14.7929 21.8826 14.7929C23.7659 14.7929 25.5721 15.541 26.9037 16.8727C28.2354 18.2043 28.9836 20.0105 28.9836 21.8938C28.9836 23.777 28.2354 25.5832 26.9037 26.9149C25.5721 28.2465 23.7659 28.9947 21.8826 28.9947Z" stroke="#FFD23C" stroke-width="4"/>
</svg>
