<svg width="49" height="49" viewBox="0 0 49 49" fill="none" xmlns="http://www.w3.org/2000/svg">
<path d="M24.8826 44.0388C35.531 44.0388 44.1558 35.414 44.1558 24.7656C44.1558 14.1171 35.531 5.49232 24.8826 5.49232C14.2341 5.49232 5.60933 14.1171 5.60933 24.7656C5.60933 35.414 14.2341 44.0388 24.8826 44.0388ZM24.8826 0.674011C38.1329 0.674011 48.9741 11.5152 48.9741 24.7656C48.9741 38.0159 38.1329 48.8571 24.8826 48.8571C11.5599 48.8571 0.791016 38.0159 0.791016 24.7656C0.791016 11.5152 11.6322 0.674011 24.8826 0.674011ZM26.7486 26.7927C26.3153 27.043 25.8237 27.1747 25.3233 27.1747C23.7494 27.1747 22.4734 25.8988 22.4734 24.3248V14.5267C22.4734 13.5287 23.2824 12.7198 24.2803 12.7198C25.2782 12.7198 26.0871 13.5287 26.0871 14.5267V22.9828L33.4346 18.753C34.2999 18.2549 35.4053 18.552 35.9042 19.4169C36.4034 20.282 36.1069 21.388 35.242 21.8876L26.7486 26.7927Z" fill="#FFD23C"/>
</svg>
