<svg width="245" height="56" viewBox="0 0 245 56" fill="none" xmlns="http://www.w3.org/2000/svg">
<path d="M38.722 36.023H40.69V16.607H38.722V24.671H27.682V16.607H25.714V36.023H27.682V26.543H38.722V36.023ZM51.7875 16.223C49.2435 16.223 46.9635 17.111 45.3315 18.767C43.5795 20.591 42.6435 23.183 42.6435 26.327C42.6435 32.471 46.2195 36.431 51.7875 36.431C56.2035 36.431 60.9315 33.767 60.9315 26.327C60.9315 20.087 57.3315 16.223 51.7875 16.223ZM51.7875 34.463C48.2595 34.463 44.6115 32.327 44.6115 26.327C44.6115 20.495 48.2595 18.191 51.7875 18.191C55.2915 18.191 58.9395 20.279 58.9395 26.327C58.9395 31.535 56.2755 34.463 51.7875 34.463ZM75.9893 28.847C75.9893 32.279 74.1173 34.439 70.3253 34.439C66.5573 34.439 64.6613 32.303 64.6613 28.847V16.583H62.6933V28.487C62.6933 31.223 63.6293 36.407 70.3253 36.407C77.0453 36.407 77.9813 31.223 77.9813 28.487V16.583H75.9893V28.847ZM82.0742 21.407C82.0742 19.295 83.9222 18.191 86.5622 18.191C89.2502 18.191 90.8582 19.799 90.8582 21.935H92.8262C92.8262 18.599 90.4262 16.223 86.5622 16.223C82.4342 16.223 80.1062 18.479 80.1062 21.335C80.1062 29.279 91.7462 24.983 91.7462 30.455C91.7462 32.495 90.4262 34.463 86.8502 34.463C83.5382 34.463 81.5942 32.303 81.5942 30.263H79.6262C79.6262 33.095 82.0022 36.431 86.6582 36.431C91.8902 36.431 93.6902 33.215 93.6902 30.695C93.6902 22.847 82.0742 27.167 82.0742 21.407ZM97.5252 18.503H108.613V16.607H95.5812V36.023H108.613V34.151H97.5252V26.519L106.861 26.567V24.671H97.5252V18.503ZM139.676 25.991C141.548 25.343 142.148 23.327 142.148 22.079C142.148 19.247 140.012 16.607 136.628 16.607H129.284V36.023H136.892C141.38 36.023 143.324 33.983 143.324 30.911C143.324 28.751 142.556 26.423 139.676 25.991ZM136.052 18.527C138.812 18.527 140.156 19.919 140.156 21.863C140.156 24.335 138.716 25.151 136.028 25.151C134.852 25.151 132.788 25.151 131.228 25.151V18.527H136.052ZM137.252 34.127H131.228V27.047H137.204C139.844 27.047 141.38 28.799 141.38 30.767C141.38 33.191 139.7 34.127 137.252 34.127ZM153.881 16.223C151.337 16.223 149.057 17.111 147.425 18.767C145.673 20.591 144.737 23.183 144.737 26.327C144.737 32.471 148.313 36.431 153.881 36.431C158.297 36.431 163.025 33.767 163.025 26.327C163.025 20.087 159.425 16.223 153.881 16.223ZM153.881 34.463C150.353 34.463 146.705 32.327 146.705 26.327C146.705 20.495 150.353 18.191 153.881 18.191C157.385 18.191 161.033 20.279 161.033 26.327C161.033 31.535 158.369 34.463 153.881 34.463ZM171.291 40.199H173.115C169.035 35.351 166.323 30.095 166.731 24.551C167.067 19.943 169.899 15.239 173.307 10.847L171.627 10.823C160.107 23.399 164.955 33.671 171.291 40.199ZM187.253 30.455L189.245 36.023H191.357L184.085 16.607H181.901L174.629 36.023H176.693L178.685 30.455H187.253ZM182.981 18.431L186.581 28.559H179.381L182.981 18.431ZM193.003 10.823L191.323 10.847C194.707 15.239 197.539 19.943 197.875 24.551C198.283 30.095 195.571 35.351 191.491 40.199H193.315C199.675 33.671 204.499 23.399 193.003 10.823ZM219.549 18.503V16.607H201.333V18.503H209.445V36.023H211.413V18.503H219.549Z" fill="white"/>
<path d="M119.188 39.5164L119.188 14.1673" stroke="white" stroke-width="2.48144" stroke-linecap="square"/>
<rect x="2" y="2" width="240.836" height="52" rx="26" stroke="white" stroke-width="4"/>
</svg>
